<svg width="1600" height="1000" viewBox="0 0 1600 1000" fill="none" xmlns="http://www.w3.org/2000/svg">
  <rect width="1600" height="1000" rx="48" fill="#100E1C"/>
  <rect width="1600" height="1000" rx="48" fill="url(#paint0_radial)"/>
  <rect x="118" y="120" width="1364" height="760" rx="40" fill="#17142B" stroke="#4D3B8A" stroke-width="2"/>
  <rect x="188" y="208" width="330" height="56" rx="16" fill="#292148"/>
  <rect x="188" y="294" width="550" height="18" rx="9" fill="#8575B8"/>
  <rect x="188" y="326" width="500" height="18" rx="9" fill="#6D5FA3"/>
  <rect x="820" y="208" width="592" height="590" rx="28" fill="#241C42"/>
  <circle cx="1116" cy="454" r="178" fill="url(#paint1_linear)"/>
  <rect x="214" y="436" width="492" height="320" rx="28" fill="#211A3B"/>
  <rect x="250" y="480" width="420" height="22" rx="11" fill="#55468D"/>
  <rect x="250" y="524" width="366" height="22" rx="11" fill="#433770"/>
  <rect x="250" y="688" width="180" height="44" rx="14" fill="#8A6BFF"/>
  <defs>
    <radialGradient id="paint0_radial" cx="0" cy="0" r="1" gradientUnits="userSpaceOnUse" gradientTransform="translate(1520 120) rotate(150.422) scale(1250.84 1791.98)">
      <stop stop-color="#2A1D5F"/>
      <stop offset="1" stop-color="#100E1C" stop-opacity="0"/>
    </radialGradient>
    <linearGradient id="paint1_linear" x1="938" y1="276" x2="1294" y2="632" gradientUnits="userSpaceOnUse">
      <stop stop-color="#E37EFF"/>
      <stop offset="1" stop-color="#7A89FF"/>
    </linearGradient>
  </defs>
</svg>
